<svg width="50" height="50" viewBox="0 0 50 50" fill="none" xmlns="http://www.w3.org/2000/svg">
<rect width="50" height="50" rx="10" fill="white"/>
<rect x="0.5" y="0.5" width="49" height="49" rx="9.5" stroke="black" stroke-opacity="0.3"/>
<g clip-path="url(#clip0_57_21)">
<path d="M29.6371 33.28C28.6571 34.23 27.5871 34.08 26.5571 33.63C25.4671 33.17 24.4671 33.15 23.3171 33.63C21.8771 34.25 21.1171 34.07 20.2571 33.28C15.3771 28.25 16.0971 20.59 21.6371 20.31C22.9871 20.38 23.9271 21.05 24.7171 21.11C25.8971 20.87 27.0271 20.18 28.2871 20.27C29.7971 20.39 30.9371 20.99 31.6871 22.07C28.5671 23.94 29.3071 28.05 32.1671 29.2C31.5971 30.7 30.8571 32.19 29.6271 33.29L29.6371 33.28ZM24.6171 20.25C24.4671 18.02 26.2771 16.18 28.3571 16C28.6471 18.58 26.0171 20.5 24.6171 20.25Z" fill="black"/>
</g>
<defs>
<clipPath id="clip0_57_21">
<rect width="24" height="24" fill="white" transform="translate(13 10)"/>
</clipPath>
</defs>
</svg>
