<svg width="50" height="50" viewBox="0 0 50 50" fill="none" xmlns="http://www.w3.org/2000/svg">
<g clip-path="url(#clip0_57_9)">
<rect width="50" height="50" rx="10" fill="white"/>
<rect width="50" height="50" rx="10" fill="white"/>
<rect x="0.5" y="0.5" width="49" height="49" rx="9.5" stroke="black" stroke-opacity="0.3"/>
<g clip-path="url(#clip1_57_9)">
<path d="M22.5734 17.5261C20.9747 18.0807 19.5961 19.1333 18.6399 20.5294C17.6837 21.9254 17.2004 23.5913 17.2609 25.2823C17.3215 26.9734 17.9227 28.6004 18.9763 29.9245C20.03 31.2485 21.4804 32.1998 23.1146 32.6386C24.4395 32.9805 25.8276 32.9955 27.1596 32.6824C28.3663 32.4113 29.4819 31.8316 30.3971 30.9999C31.3497 30.1078 32.0412 28.973 32.3971 27.7174C32.784 26.352 32.8529 24.916 32.5984 23.5199H25.1584V26.6061H29.4671C29.381 27.0984 29.1965 27.5682 28.9246 27.9874C28.6527 28.4067 28.2989 28.7668 27.8846 29.0461C27.3585 29.3942 26.7654 29.6283 26.1434 29.7336C25.5196 29.8496 24.8797 29.8496 24.2559 29.7336C23.6236 29.6029 23.0255 29.3419 22.4996 28.9674C21.6548 28.3694 21.0205 27.5198 20.6871 26.5399C20.3481 25.5416 20.3481 24.4594 20.6871 23.4611C20.9244 22.7614 21.3167 22.1243 21.8346 21.5974C22.4274 20.9833 23.1778 20.5444 24.0036 20.3287C24.8294 20.1131 25.6986 20.129 26.5159 20.3749C27.1543 20.5709 27.7382 20.9133 28.2209 21.3749C28.7067 20.8915 29.1917 20.407 29.6759 19.9211C29.9259 19.6599 30.1984 19.4111 30.4446 19.1436C29.7078 18.458 28.843 17.9244 27.8996 17.5736C26.1818 16.9499 24.3021 16.9331 22.5734 17.5261Z" fill="white"/>
<path d="M22.5735 17.5262C24.3021 16.9328 26.1817 16.9491 27.8997 17.5725C28.8432 17.9257 29.7077 18.4618 30.4435 19.15C30.1935 19.4175 29.9297 19.6675 29.6747 19.9275C29.1897 20.4117 28.7051 20.8942 28.221 21.375C27.7383 20.9134 27.1544 20.571 26.516 20.375C25.6989 20.1283 24.8297 20.1114 24.0038 20.3262C23.1778 20.5409 22.4269 20.9791 21.8335 21.5925C21.3155 22.1194 20.9233 22.7565 20.686 23.4562L18.0947 21.45C19.0222 19.6107 20.6282 18.2038 22.5735 17.5262Z" fill="#E33629"/>
<path d="M17.4079 23.4377C17.5472 22.7474 17.7784 22.079 18.0954 21.4502L20.6867 23.4614C20.3477 24.4597 20.3477 25.5419 20.6867 26.5402C19.8233 27.2069 18.9596 27.8769 18.0954 28.5502C17.3019 26.9706 17.0598 25.1708 17.4079 23.4377Z" fill="#F8BD00"/>
<path d="M25.1588 23.5186H32.5988C32.8533 24.9147 32.7844 26.3506 32.3975 27.7161C32.0416 28.9717 31.3501 30.1065 30.3975 30.9986C29.5613 30.3461 28.7213 29.6986 27.885 29.0461C28.2996 28.7664 28.6535 28.4059 28.9254 27.9862C29.1973 27.5665 29.3817 27.0962 29.4675 26.6036H25.1588C25.1575 25.5761 25.1588 24.5473 25.1588 23.5186Z" fill="#587DBD"/>
<path d="M18.0938 28.55C18.9579 27.8834 19.8217 27.2134 20.685 26.54C21.019 27.5203 21.6543 28.3699 22.5 28.9675C23.0275 29.3404 23.6269 29.5992 24.26 29.7275C24.8838 29.8435 25.5237 29.8435 26.1475 29.7275C26.7695 29.6223 27.3626 29.3881 27.8888 29.04C28.725 29.6925 29.565 30.34 30.4012 30.9925C29.4861 31.8247 28.3705 32.4049 27.1637 32.6763C25.8318 32.9894 24.4437 32.9744 23.1188 32.6325C22.0709 32.3528 21.0921 31.8595 20.2438 31.1838C19.3458 30.4709 18.6124 29.5725 18.0938 28.55Z" fill="#319F43"/>
</g>
</g>
<defs>
<clipPath id="clip0_57_9">
<rect width="50" height="50" rx="10" fill="white"/>
</clipPath>
<clipPath id="clip1_57_9">
<rect width="16" height="16" fill="white" transform="translate(17 17)"/>
</clipPath>
</defs>
</svg>
