<svg width="24" height="24" viewBox="0 0 24 24" fill="none" xmlns="http://www.w3.org/2000/svg">
<path d="M4.47594 17.604V8.604C4.47594 8.28734 4.54271 7.98734 4.67626 7.704C4.80982 7.42067 4.99384 7.18734 5.22834 7.004L10.8714 2.504C11.2006 2.23734 11.5768 2.104 12 2.104C12.4232 2.104 12.7994 2.23734 13.1286 2.504L18.7716 7.004C19.0068 7.18734 19.1911 7.42067 19.3247 7.704C19.4582 7.98734 19.5247 8.28734 19.524 8.604V17.604C19.524 18.154 19.3397 18.625 18.971 19.017C18.6023 19.409 18.1597 19.6047 17.643 19.604H14.8215C14.555 19.604 14.3318 19.508 14.1519 19.316C13.9719 19.124 13.8816 18.8867 13.881 18.604V13.604C13.881 13.3207 13.7907 13.0833 13.6101 12.892C13.4296 12.7007 13.2063 12.6047 12.9405 12.604H11.0595C10.793 12.604 10.5698 12.7 10.3898 12.892C10.2099 13.084 10.1196 13.3213 10.119 13.604V18.604C10.119 18.8873 10.0287 19.125 9.84811 19.317C9.66753 19.509 9.44432 19.6047 9.17847 19.604H6.35695C5.83967 19.604 5.39701 19.4083 5.02895 19.017C4.6609 18.6257 4.47656 18.1547 4.47594 17.604Z" fill="#BBBBBB"/>
</svg>
